<mxfile host="app.diagrams.net" agent="Mozilla/5.0 (Windows NT 10.0; Win64; x64) AppleWebKit/537.36 (KHTML, like Gecko) Chrome/127.0.0.0 Safari/537.36" version="24.7.5">
  <diagram name="Page-1" id="eKm0VzZ6zvyhXqVyssxc">
    <mxGraphModel dx="880" dy="434" grid="1" gridSize="10" guides="1" tooltips="1" connect="1" arrows="1" fold="1" page="1" pageScale="1" pageWidth="1200" pageHeight="1600" math="0" shadow="0">
      <root>
        <mxCell id="0" />
        <mxCell id="1" parent="0" />
        <mxCell id="fp1AgDsGGKCfpJwvSOB1-1" value="LB" style="rounded=0;whiteSpace=wrap;html=1;rotation=90;" vertex="1" parent="1">
          <mxGeometry x="290" y="170" width="120" height="60" as="geometry" />
        </mxCell>
        <mxCell id="fp1AgDsGGKCfpJwvSOB1-2" value="s1" style="rounded=1;whiteSpace=wrap;html=1;" vertex="1" parent="1">
          <mxGeometry x="530" y="130" width="60" height="30" as="geometry" />
        </mxCell>
        <mxCell id="fp1AgDsGGKCfpJwvSOB1-3" value="s2" style="rounded=1;whiteSpace=wrap;html=1;" vertex="1" parent="1">
          <mxGeometry x="530" y="180" width="60" height="30" as="geometry" />
        </mxCell>
        <mxCell id="fp1AgDsGGKCfpJwvSOB1-4" value="s3" style="rounded=1;whiteSpace=wrap;html=1;" vertex="1" parent="1">
          <mxGeometry x="530" y="230" width="60" height="30" as="geometry" />
        </mxCell>
        <mxCell id="fp1AgDsGGKCfpJwvSOB1-5" value="" style="endArrow=classic;html=1;rounded=0;exitX=0.25;exitY=0;exitDx=0;exitDy=0;entryX=0;entryY=0.5;entryDx=0;entryDy=0;" edge="1" parent="1" source="fp1AgDsGGKCfpJwvSOB1-1" target="fp1AgDsGGKCfpJwvSOB1-2">
          <mxGeometry width="50" height="50" relative="1" as="geometry">
            <mxPoint x="410" y="200" as="sourcePoint" />
            <mxPoint x="480" y="170" as="targetPoint" />
            <Array as="points">
              <mxPoint x="430" y="170" />
            </Array>
          </mxGeometry>
        </mxCell>
        <mxCell id="fp1AgDsGGKCfpJwvSOB1-6" value="" style="endArrow=classic;html=1;rounded=0;exitX=0.25;exitY=0;exitDx=0;exitDy=0;entryX=0;entryY=0.5;entryDx=0;entryDy=0;" edge="1" parent="1" target="fp1AgDsGGKCfpJwvSOB1-3">
          <mxGeometry width="50" height="50" relative="1" as="geometry">
            <mxPoint x="380" y="195" as="sourcePoint" />
            <mxPoint x="530" y="170" as="targetPoint" />
            <Array as="points">
              <mxPoint x="430" y="195" />
            </Array>
          </mxGeometry>
        </mxCell>
        <mxCell id="fp1AgDsGGKCfpJwvSOB1-7" value="" style="endArrow=classic;html=1;rounded=0;exitX=0.25;exitY=0;exitDx=0;exitDy=0;entryX=0;entryY=0.5;entryDx=0;entryDy=0;" edge="1" parent="1" target="fp1AgDsGGKCfpJwvSOB1-4">
          <mxGeometry width="50" height="50" relative="1" as="geometry">
            <mxPoint x="380" y="225" as="sourcePoint" />
            <mxPoint x="530" y="200" as="targetPoint" />
            <Array as="points">
              <mxPoint x="430" y="225" />
            </Array>
          </mxGeometry>
        </mxCell>
        <mxCell id="fp1AgDsGGKCfpJwvSOB1-8" value="round robin" style="text;html=1;align=center;verticalAlign=middle;resizable=0;points=[];autosize=1;strokeColor=none;fillColor=none;" vertex="1" parent="1">
          <mxGeometry x="330" y="90" width="80" height="30" as="geometry" />
        </mxCell>
        <mxCell id="fp1AgDsGGKCfpJwvSOB1-9" value="1, 4" style="text;html=1;align=center;verticalAlign=middle;resizable=0;points=[];autosize=1;strokeColor=none;fillColor=none;" vertex="1" parent="1">
          <mxGeometry x="605" y="130" width="40" height="30" as="geometry" />
        </mxCell>
        <mxCell id="fp1AgDsGGKCfpJwvSOB1-10" value="2, 5" style="text;html=1;align=center;verticalAlign=middle;resizable=0;points=[];autosize=1;strokeColor=none;fillColor=none;" vertex="1" parent="1">
          <mxGeometry x="605" y="180" width="40" height="30" as="geometry" />
        </mxCell>
        <mxCell id="fp1AgDsGGKCfpJwvSOB1-11" value="3, 6" style="text;html=1;align=center;verticalAlign=middle;resizable=0;points=[];autosize=1;strokeColor=none;fillColor=none;" vertex="1" parent="1">
          <mxGeometry x="605" y="230" width="40" height="30" as="geometry" />
        </mxCell>
        <mxCell id="fp1AgDsGGKCfpJwvSOB1-12" value="LB" style="rounded=0;whiteSpace=wrap;html=1;rotation=90;" vertex="1" parent="1">
          <mxGeometry x="290" y="440" width="120" height="60" as="geometry" />
        </mxCell>
        <mxCell id="fp1AgDsGGKCfpJwvSOB1-13" value="s1" style="rounded=1;whiteSpace=wrap;html=1;" vertex="1" parent="1">
          <mxGeometry x="530" y="400" width="60" height="30" as="geometry" />
        </mxCell>
        <mxCell id="fp1AgDsGGKCfpJwvSOB1-14" value="s2" style="rounded=1;whiteSpace=wrap;html=1;" vertex="1" parent="1">
          <mxGeometry x="530" y="450" width="110" height="30" as="geometry" />
        </mxCell>
        <mxCell id="fp1AgDsGGKCfpJwvSOB1-15" value="s3" style="rounded=1;whiteSpace=wrap;html=1;" vertex="1" parent="1">
          <mxGeometry x="530" y="500" width="60" height="30" as="geometry" />
        </mxCell>
        <mxCell id="fp1AgDsGGKCfpJwvSOB1-16" value="" style="endArrow=classic;html=1;rounded=0;exitX=0.25;exitY=0;exitDx=0;exitDy=0;entryX=0;entryY=0.5;entryDx=0;entryDy=0;" edge="1" parent="1" source="fp1AgDsGGKCfpJwvSOB1-12" target="fp1AgDsGGKCfpJwvSOB1-13">
          <mxGeometry width="50" height="50" relative="1" as="geometry">
            <mxPoint x="410" y="470" as="sourcePoint" />
            <mxPoint x="480" y="440" as="targetPoint" />
            <Array as="points">
              <mxPoint x="430" y="440" />
            </Array>
          </mxGeometry>
        </mxCell>
        <mxCell id="fp1AgDsGGKCfpJwvSOB1-17" value="" style="endArrow=classic;html=1;rounded=0;exitX=0.25;exitY=0;exitDx=0;exitDy=0;entryX=0;entryY=0.5;entryDx=0;entryDy=0;" edge="1" parent="1" target="fp1AgDsGGKCfpJwvSOB1-14">
          <mxGeometry width="50" height="50" relative="1" as="geometry">
            <mxPoint x="380" y="465" as="sourcePoint" />
            <mxPoint x="530" y="440" as="targetPoint" />
            <Array as="points">
              <mxPoint x="430" y="465" />
            </Array>
          </mxGeometry>
        </mxCell>
        <mxCell id="fp1AgDsGGKCfpJwvSOB1-18" value="" style="endArrow=classic;html=1;rounded=0;exitX=0.25;exitY=0;exitDx=0;exitDy=0;entryX=0;entryY=0.5;entryDx=0;entryDy=0;" edge="1" parent="1" target="fp1AgDsGGKCfpJwvSOB1-15">
          <mxGeometry width="50" height="50" relative="1" as="geometry">
            <mxPoint x="380" y="495" as="sourcePoint" />
            <mxPoint x="530" y="470" as="targetPoint" />
            <Array as="points">
              <mxPoint x="430" y="495" />
            </Array>
          </mxGeometry>
        </mxCell>
        <mxCell id="fp1AgDsGGKCfpJwvSOB1-19" value="weighted round robin" style="text;html=1;align=center;verticalAlign=middle;resizable=0;points=[];autosize=1;strokeColor=none;fillColor=none;" vertex="1" parent="1">
          <mxGeometry x="320" y="360" width="140" height="30" as="geometry" />
        </mxCell>
        <mxCell id="fp1AgDsGGKCfpJwvSOB1-20" value="1, 5" style="text;html=1;align=center;verticalAlign=middle;resizable=0;points=[];autosize=1;strokeColor=none;fillColor=none;" vertex="1" parent="1">
          <mxGeometry x="605" y="400" width="40" height="30" as="geometry" />
        </mxCell>
        <mxCell id="fp1AgDsGGKCfpJwvSOB1-21" value="2, 3, 6, 7" style="text;html=1;align=center;verticalAlign=middle;resizable=0;points=[];autosize=1;strokeColor=none;fillColor=none;" vertex="1" parent="1">
          <mxGeometry x="660" y="450" width="70" height="30" as="geometry" />
        </mxCell>
        <mxCell id="fp1AgDsGGKCfpJwvSOB1-22" value="4, 8" style="text;html=1;align=center;verticalAlign=middle;resizable=0;points=[];autosize=1;strokeColor=none;fillColor=none;" vertex="1" parent="1">
          <mxGeometry x="605" y="500" width="40" height="30" as="geometry" />
        </mxCell>
        <mxCell id="fp1AgDsGGKCfpJwvSOB1-23" value="LB" style="rounded=0;whiteSpace=wrap;html=1;rotation=90;" vertex="1" parent="1">
          <mxGeometry x="290" y="740" width="120" height="60" as="geometry" />
        </mxCell>
        <mxCell id="fp1AgDsGGKCfpJwvSOB1-24" value="s1" style="rounded=1;whiteSpace=wrap;html=1;" vertex="1" parent="1">
          <mxGeometry x="530" y="700" width="60" height="30" as="geometry" />
        </mxCell>
        <mxCell id="fp1AgDsGGKCfpJwvSOB1-25" value="s2" style="rounded=1;whiteSpace=wrap;html=1;" vertex="1" parent="1">
          <mxGeometry x="530" y="750" width="60" height="30" as="geometry" />
        </mxCell>
        <mxCell id="fp1AgDsGGKCfpJwvSOB1-26" value="s3" style="rounded=1;whiteSpace=wrap;html=1;" vertex="1" parent="1">
          <mxGeometry x="530" y="800" width="60" height="30" as="geometry" />
        </mxCell>
        <mxCell id="fp1AgDsGGKCfpJwvSOB1-27" value="" style="endArrow=classic;html=1;rounded=0;exitX=0.25;exitY=0;exitDx=0;exitDy=0;entryX=0;entryY=0.5;entryDx=0;entryDy=0;" edge="1" parent="1" source="fp1AgDsGGKCfpJwvSOB1-23" target="fp1AgDsGGKCfpJwvSOB1-24">
          <mxGeometry width="50" height="50" relative="1" as="geometry">
            <mxPoint x="410" y="770" as="sourcePoint" />
            <mxPoint x="480" y="740" as="targetPoint" />
            <Array as="points">
              <mxPoint x="430" y="740" />
            </Array>
          </mxGeometry>
        </mxCell>
        <mxCell id="fp1AgDsGGKCfpJwvSOB1-28" value="" style="endArrow=classic;html=1;rounded=0;exitX=0.25;exitY=0;exitDx=0;exitDy=0;entryX=0;entryY=0.5;entryDx=0;entryDy=0;" edge="1" parent="1" target="fp1AgDsGGKCfpJwvSOB1-25">
          <mxGeometry width="50" height="50" relative="1" as="geometry">
            <mxPoint x="380" y="765" as="sourcePoint" />
            <mxPoint x="530" y="740" as="targetPoint" />
            <Array as="points">
              <mxPoint x="430" y="765" />
            </Array>
          </mxGeometry>
        </mxCell>
        <mxCell id="fp1AgDsGGKCfpJwvSOB1-29" value="" style="endArrow=classic;html=1;rounded=0;exitX=0.25;exitY=0;exitDx=0;exitDy=0;entryX=0;entryY=0.5;entryDx=0;entryDy=0;" edge="1" parent="1" target="fp1AgDsGGKCfpJwvSOB1-26">
          <mxGeometry width="50" height="50" relative="1" as="geometry">
            <mxPoint x="380" y="795" as="sourcePoint" />
            <mxPoint x="530" y="770" as="targetPoint" />
            <Array as="points">
              <mxPoint x="430" y="795" />
            </Array>
          </mxGeometry>
        </mxCell>
        <mxCell id="fp1AgDsGGKCfpJwvSOB1-30" value="least connections (those servers which are free the request will go there)" style="text;html=1;align=center;verticalAlign=middle;resizable=0;points=[];autosize=1;strokeColor=none;fillColor=none;" vertex="1" parent="1">
          <mxGeometry x="185" y="660" width="410" height="30" as="geometry" />
        </mxCell>
        <mxCell id="fp1AgDsGGKCfpJwvSOB1-31" value="1, 5" style="text;html=1;align=center;verticalAlign=middle;resizable=0;points=[];autosize=1;strokeColor=none;fillColor=none;" vertex="1" parent="1">
          <mxGeometry x="605" y="700" width="40" height="30" as="geometry" />
        </mxCell>
        <mxCell id="fp1AgDsGGKCfpJwvSOB1-32" value="2, 3, 6, 7" style="text;html=1;align=center;verticalAlign=middle;resizable=0;points=[];autosize=1;strokeColor=none;fillColor=none;" vertex="1" parent="1">
          <mxGeometry x="605" y="750" width="70" height="30" as="geometry" />
        </mxCell>
        <mxCell id="fp1AgDsGGKCfpJwvSOB1-33" value="4, 8" style="text;html=1;align=center;verticalAlign=middle;resizable=0;points=[];autosize=1;strokeColor=none;fillColor=none;" vertex="1" parent="1">
          <mxGeometry x="605" y="800" width="40" height="30" as="geometry" />
        </mxCell>
        <mxCell id="fp1AgDsGGKCfpJwvSOB1-34" value="Actor" style="shape=umlActor;verticalLabelPosition=bottom;verticalAlign=top;html=1;outlineConnect=0;" vertex="1" parent="1">
          <mxGeometry x="140" y="730" width="30" height="60" as="geometry" />
        </mxCell>
        <mxCell id="fp1AgDsGGKCfpJwvSOB1-35" value="Actor" style="shape=umlActor;verticalLabelPosition=bottom;verticalAlign=top;html=1;outlineConnect=0;" vertex="1" parent="1">
          <mxGeometry x="150" y="740" width="30" height="60" as="geometry" />
        </mxCell>
        <mxCell id="fp1AgDsGGKCfpJwvSOB1-36" value="Actor" style="shape=umlActor;verticalLabelPosition=bottom;verticalAlign=top;html=1;outlineConnect=0;" vertex="1" parent="1">
          <mxGeometry x="160" y="750" width="30" height="60" as="geometry" />
        </mxCell>
        <mxCell id="fp1AgDsGGKCfpJwvSOB1-37" value="Actor" style="shape=umlActor;verticalLabelPosition=bottom;verticalAlign=top;html=1;outlineConnect=0;" vertex="1" parent="1">
          <mxGeometry x="170" y="760" width="30" height="60" as="geometry" />
        </mxCell>
        <mxCell id="fp1AgDsGGKCfpJwvSOB1-38" value="" style="endArrow=classic;html=1;rounded=0;entryX=0.4;entryY=1.033;entryDx=0;entryDy=0;entryPerimeter=0;" edge="1" parent="1" target="fp1AgDsGGKCfpJwvSOB1-23">
          <mxGeometry width="50" height="50" relative="1" as="geometry">
            <mxPoint x="200" y="790" as="sourcePoint" />
            <mxPoint x="250" y="740" as="targetPoint" />
            <Array as="points" />
          </mxGeometry>
        </mxCell>
        <mxCell id="fp1AgDsGGKCfpJwvSOB1-40" value="" style="endArrow=classic;html=1;rounded=0;entryX=0.25;entryY=1;entryDx=0;entryDy=0;" edge="1" parent="1" target="fp1AgDsGGKCfpJwvSOB1-23">
          <mxGeometry width="50" height="50" relative="1" as="geometry">
            <mxPoint x="200" y="790" as="sourcePoint" />
            <mxPoint x="250" y="740" as="targetPoint" />
          </mxGeometry>
        </mxCell>
        <mxCell id="fp1AgDsGGKCfpJwvSOB1-42" value="" style="endArrow=classic;html=1;rounded=0;entryX=0.4;entryY=1.033;entryDx=0;entryDy=0;entryPerimeter=0;" edge="1" parent="1">
          <mxGeometry width="50" height="50" relative="1" as="geometry">
            <mxPoint x="200" y="790" as="sourcePoint" />
            <mxPoint x="320" y="788" as="targetPoint" />
            <Array as="points" />
          </mxGeometry>
        </mxCell>
        <mxCell id="fp1AgDsGGKCfpJwvSOB1-43" value="Actor" style="shape=umlActor;verticalLabelPosition=bottom;verticalAlign=top;html=1;outlineConnect=0;" vertex="1" parent="1">
          <mxGeometry x="140" y="450" width="30" height="60" as="geometry" />
        </mxCell>
        <mxCell id="fp1AgDsGGKCfpJwvSOB1-44" value="Actor" style="shape=umlActor;verticalLabelPosition=bottom;verticalAlign=top;html=1;outlineConnect=0;" vertex="1" parent="1">
          <mxGeometry x="150" y="460" width="30" height="60" as="geometry" />
        </mxCell>
        <mxCell id="fp1AgDsGGKCfpJwvSOB1-45" value="Actor" style="shape=umlActor;verticalLabelPosition=bottom;verticalAlign=top;html=1;outlineConnect=0;" vertex="1" parent="1">
          <mxGeometry x="160" y="470" width="30" height="60" as="geometry" />
        </mxCell>
        <mxCell id="fp1AgDsGGKCfpJwvSOB1-46" value="Actor" style="shape=umlActor;verticalLabelPosition=bottom;verticalAlign=top;html=1;outlineConnect=0;" vertex="1" parent="1">
          <mxGeometry x="170" y="480" width="30" height="60" as="geometry" />
        </mxCell>
        <mxCell id="fp1AgDsGGKCfpJwvSOB1-47" value="" style="endArrow=classic;html=1;rounded=0;entryX=0.4;entryY=1.033;entryDx=0;entryDy=0;entryPerimeter=0;" edge="1" parent="1">
          <mxGeometry width="50" height="50" relative="1" as="geometry">
            <mxPoint x="200" y="510" as="sourcePoint" />
            <mxPoint x="318" y="478" as="targetPoint" />
            <Array as="points" />
          </mxGeometry>
        </mxCell>
        <mxCell id="fp1AgDsGGKCfpJwvSOB1-48" value="" style="endArrow=classic;html=1;rounded=0;entryX=0.25;entryY=1;entryDx=0;entryDy=0;" edge="1" parent="1">
          <mxGeometry width="50" height="50" relative="1" as="geometry">
            <mxPoint x="200" y="510" as="sourcePoint" />
            <mxPoint x="320" y="460" as="targetPoint" />
          </mxGeometry>
        </mxCell>
        <mxCell id="fp1AgDsGGKCfpJwvSOB1-49" value="" style="endArrow=classic;html=1;rounded=0;entryX=0.4;entryY=1.033;entryDx=0;entryDy=0;entryPerimeter=0;" edge="1" parent="1">
          <mxGeometry width="50" height="50" relative="1" as="geometry">
            <mxPoint x="200" y="510" as="sourcePoint" />
            <mxPoint x="320" y="508" as="targetPoint" />
            <Array as="points" />
          </mxGeometry>
        </mxCell>
        <mxCell id="fp1AgDsGGKCfpJwvSOB1-50" value="Actor" style="shape=umlActor;verticalLabelPosition=bottom;verticalAlign=top;html=1;outlineConnect=0;" vertex="1" parent="1">
          <mxGeometry x="140" y="160" width="30" height="60" as="geometry" />
        </mxCell>
        <mxCell id="fp1AgDsGGKCfpJwvSOB1-51" value="Actor" style="shape=umlActor;verticalLabelPosition=bottom;verticalAlign=top;html=1;outlineConnect=0;" vertex="1" parent="1">
          <mxGeometry x="150" y="170" width="30" height="60" as="geometry" />
        </mxCell>
        <mxCell id="fp1AgDsGGKCfpJwvSOB1-52" value="Actor" style="shape=umlActor;verticalLabelPosition=bottom;verticalAlign=top;html=1;outlineConnect=0;" vertex="1" parent="1">
          <mxGeometry x="160" y="180" width="30" height="60" as="geometry" />
        </mxCell>
        <mxCell id="fp1AgDsGGKCfpJwvSOB1-53" value="Actor" style="shape=umlActor;verticalLabelPosition=bottom;verticalAlign=top;html=1;outlineConnect=0;" vertex="1" parent="1">
          <mxGeometry x="170" y="180" width="30" height="70" as="geometry" />
        </mxCell>
        <mxCell id="fp1AgDsGGKCfpJwvSOB1-54" value="" style="endArrow=classic;html=1;rounded=0;entryX=0.4;entryY=1.033;entryDx=0;entryDy=0;entryPerimeter=0;" edge="1" parent="1">
          <mxGeometry width="50" height="50" relative="1" as="geometry">
            <mxPoint x="200" y="220" as="sourcePoint" />
            <mxPoint x="318" y="188" as="targetPoint" />
            <Array as="points" />
          </mxGeometry>
        </mxCell>
        <mxCell id="fp1AgDsGGKCfpJwvSOB1-55" value="" style="endArrow=classic;html=1;rounded=0;entryX=0.25;entryY=1;entryDx=0;entryDy=0;" edge="1" parent="1">
          <mxGeometry width="50" height="50" relative="1" as="geometry">
            <mxPoint x="200" y="220" as="sourcePoint" />
            <mxPoint x="320" y="170" as="targetPoint" />
          </mxGeometry>
        </mxCell>
        <mxCell id="fp1AgDsGGKCfpJwvSOB1-56" value="" style="endArrow=classic;html=1;rounded=0;entryX=0.4;entryY=1.033;entryDx=0;entryDy=0;entryPerimeter=0;" edge="1" parent="1">
          <mxGeometry width="50" height="50" relative="1" as="geometry">
            <mxPoint x="200" y="220" as="sourcePoint" />
            <mxPoint x="320" y="218" as="targetPoint" />
            <Array as="points" />
          </mxGeometry>
        </mxCell>
        <mxCell id="fp1AgDsGGKCfpJwvSOB1-57" value="Hased based routing" style="text;html=1;align=center;verticalAlign=middle;resizable=0;points=[];autosize=1;strokeColor=none;fillColor=none;" vertex="1" parent="1">
          <mxGeometry x="320" y="940" width="130" height="30" as="geometry" />
        </mxCell>
      </root>
    </mxGraphModel>
  </diagram>
</mxfile>
